name D:\school\WTK\thesis\model\3dpredictsim\Results\debug_batch\Pog_s1_tmt_bCst_d05_k2000_ig24_pas.mot
datacolumns 128
datarows 4
range 1.65170354 1.68473761
endheader
time	pelvis_tilt	pelvis_list	pelvis_rotation	pelvis_tx	pelvis_ty	pelvis_tz	hip_flexion_l	hip_adduction_l	hip_rotation_l	hip_flexion_r	hip_adduction_r	hip_rotation_r	knee_angle_l	knee_angle_r	ankle_angle_l	ankle_angle_r	subtalar_angle_l	subtalar_angle_r	tmt_angle_l	tmt_angle_r	mtp_angle_l	mtp_angle_r	lumbar_extension	lumbar_bending	lumbar_rotation	arm_flex_l	arm_add_l	arm_rot_l	arm_flex_r	arm_add_r	arm_rot_r	elbow_flex_l	elbow_flex_r	pro_sup_l	pro_sup_r	glut_med1_l/activation	glut_med2_l/activation	glut_med3_l/activation	glut_min1_l/activation	glut_min2_l/activation	glut_min3_l/activation	semimem_l/activation	semiten_l/activation	bifemlh_l/activation	bifemsh_l/activation	sar_l/activation	add_long_l/activation	add_brev_l/activation	add_mag1_l/activation	add_mag2_l/activation	add_mag3_l/activation	tfl_l/activation	pect_l/activation	grac_l/activation	glut_max1_l/activation	glut_max2_l/activation	glut_max3_l/activation	iliacus_l/activation	psoas_l/activation	quad_fem_l/activation	gem_l/activation	peri_l/activation	rect_fem_l/activation	vas_med_l/activation	vas_int_l/activation	vas_lat_l/activation	med_gas_l/activation	lat_gas_l/activation	soleus_l/activation	tib_post_l/activation	flex_dig_l/activation	flex_hal_l/activation	tib_ant_l/activation	per_brev_l/activation	per_long_l/activation	per_tert_l/activation	ext_dig_l/activation	ext_hal_l/activation	ercspn_l/activation	intobl_l/activation	extobl_l/activation	glut_med1_r/activation	glut_med2_r/activation	glut_med3_r/activation	glut_min1_r/activation	glut_min2_r/activation	glut_min3_r/activation	semimem_r/activation	semiten_r/activation	bifemlh_r/activation	bifemsh_r/activation	sar_r/activation	add_long_r/activation	add_brev_r/activation	add_mag1_r/activation	add_mag2_r/activation	add_mag3_r/activation	tfl_r/activation	pect_r/activation	grac_r/activation	glut_max1_r/activation	glut_max2_r/activation	glut_max3_r/activation	iliacus_r/activation	psoas_r/activation	quad_fem_r/activation	gem_r/activation	peri_r/activation	rect_fem_r/activation	vas_med_r/activation	vas_int_r/activation	vas_lat_r/activation	med_gas_r/activation	lat_gas_r/activation	soleus_r/activation	tib_post_r/activation	flex_dig_r/activation	flex_hal_r/activation	tib_ant_r/activation	per_brev_r/activation	per_long_r/activation	per_tert_r/activation	ext_dig_r/activation	ext_hal_r/activation	ercspn_r/activation	intobl_r/activation	extobl_r/activation	
          1.65170354	         -2.92744278	          2.46988950	         -5.92627615	          2.06462943	          0.85556507	          0.00333681	         31.87997571	          3.16351774	         -3.03472841	        -18.72419836	         -2.04547603	          7.11435336	        -14.48228148	         -6.45096383	          6.50159950	          0.94053251	         -3.33209899	          9.93743139	          0.01625141	          0.90281018	         -0.12319908	         22.28066476	         -2.20091765	         -0.86737533	          2.04325560	         -8.53531188	        -13.53480809	         10.46897284	          8.98071587	        -13.45857126	         18.74023619	         11.79637304	         35.97923399	         86.51662706	         86.51662706	          0.05000012	          0.05000007	          0.05000067	          0.05000007	          0.05000008	          0.05000029	          0.05917612	          0.05917611	          0.32630452	          0.05000013	          0.05000021	          0.10741564	          0.15419147	          0.21288316	          0.17003087	          0.12876008	          0.05917600	          0.05236828	          0.05917675	          0.05000069	          0.07003690	          0.12111749	          0.05005961	          0.05597001	          0.17957328	          0.05000047	          0.05000032	          0.05003347	          0.12224100	          0.12328960	          0.10645922	          0.05000028	          0.05000026	          0.05917611	          0.05000002	          0.05000074	          0.05020516	          0.52701090	          0.37845385	          0.22515515	          0.33004254	          0.55807122	          0.30742503	          0.07252169	          0.10239984	          0.09919623	          0.25127725	          0.09810153	          0.07003303	          0.29995385	          0.19551183	          0.10059395	          0.05000055	          0.05000009	          0.05000006	          0.08116639	          0.11088337	          0.06285098	          0.05000015	          0.05000016	          0.05000044	          0.05000037	          0.32502808	          0.05000075	          0.05000021	          0.05000197	          0.05000122	          0.05000073	          0.44473105	          0.68532201	          0.05000012	          0.05000032	          0.05000008	          0.25163599	          0.09792000	          0.05003817	          0.05008382	          0.33197569	          0.45161239	          0.30774830	          0.29021693	          0.29624825	          0.39781091	          0.05000000	          0.06622268	          0.17173959	          0.05000007	          0.05000001	          0.05000005	          0.05000000	          0.05000000	          0.05000000	
          1.66271490	         -2.91946076	          2.56028681	         -6.21352444	          2.08134570	          0.85445424	          0.00312219	         31.30217881	          3.54108195	         -2.86002161	        -18.57076462	         -2.36362933	          6.92732235	        -14.42556479	         -8.46865759	          5.94726370	          0.11111476	         -3.84577139	         10.94279863	          0.02167874	          0.77915985	         -0.10770128	         23.36809401	         -1.98590399	         -1.08910095	          2.13232009	         -9.70277304	        -13.52669355	         10.36671405	          8.78944587	        -13.47318436	         18.87145728	         11.73186205	         37.23860075	         86.51662706	         86.51662706	          0.05971071	          0.05339384	          0.05000015	          0.05917571	          0.05021760	          0.05000028	          0.05000005	          0.05000011	          0.28620283	          0.05000011	          0.05000071	          0.09075935	          0.13028187	          0.23933754	          0.19088917	          0.12974496	          0.05000008	          0.05000059	          0.05000064	          0.05917610	          0.05917682	          0.13984128	          0.05000006	          0.05000018	          0.50842469	          0.11822744	          0.10804079	          0.07003619	          0.19569307	          0.20050491	          0.17478180	          0.05000000	          0.05000000	          0.05000000	          0.05000004	          0.05917624	          0.05000052	          0.59546876	          0.31976910	          0.21893008	          0.51588666	          0.59623083	          0.27402772	          0.06127614	          0.08652124	          0.08381440	          0.21231305	          0.08288946	          0.05917355	          0.25344164	          0.16519487	          0.08499539	          0.05000078	          0.05000012	          0.05000015	          0.06858036	          0.09368936	          0.14475655	          0.08428613	          0.05637767	          0.05000133	          0.05000051	          0.27462778	          0.10029397	          0.05003357	          0.05000058	          0.05000041	          0.05000039	          0.37576898	          0.62697067	          0.05000040	          0.05917663	          0.05917617	          0.21261615	          0.08765887	          0.19247795	          0.16263227	          0.28049797	          0.38158325	          0.26002739	          0.25278314	          0.25031087	          0.33612470	          0.05000000	          0.05595391	          0.16621155	          0.05000003	          0.05000001	          0.05000005	          0.05027044	          0.07003625	          0.05000002	
          1.67372626	         -2.90735066	          2.64973579	         -6.47323226	          2.09835335	          0.85337412	          0.00291465	         30.60616430	          3.85889866	         -2.61532413	        -18.32799379	         -2.67185964	          6.73220917	        -14.92936251	        -10.63503439	          5.31328416	         -0.89774834	         -4.39119923	         11.90032083	         -0.01555171	          0.64774147	         -0.15189858	         24.29372111	         -1.74951321	         -1.31499565	          2.20982520	        -10.88714833	        -13.52175132	         10.29266716	          8.50546903	        -13.48686287	         18.92686943	         11.72861683	         38.46783107	         86.51662706	         86.51662706	          0.28550548	          0.05000003	          0.34799155	          0.05000007	          0.05000006	          0.26827908	          0.07444351	          0.05000017	          0.24182290	          0.05000005	          0.05000020	          0.08288944	          0.21200598	          0.20222504	          0.18270688	          0.15991607	          0.05000020	          0.05919169	          0.12429797	          0.05000008	          0.05000062	          0.14032992	          0.05356552	          0.05000021	          0.42958597	          0.09989458	          0.18662528	          0.05917606	          0.16534806	          0.16941387	          0.14767940	          0.05917675	          0.05917643	          0.05917628	          0.05917611	          0.05000017	          0.05000042	          0.50313256	          0.39908085	          0.21033133	          0.43589096	          0.58007595	          0.23153570	          0.05474773	          0.09494202	          0.07081774	          0.29573756	          0.07003624	          0.05000011	          0.21414186	          0.13957899	          0.07181562	          0.05000069	          0.05000016	          0.05000016	          0.05794598	          0.07916153	          0.16492604	          0.14693882	          0.05917626	          0.05917613	          0.05917597	          0.23204303	          0.08479444	          0.05011631	          0.05002614	          0.05004633	          0.05917553	          0.31750050	          0.58743401	          0.05917603	          0.05000099	          0.05000007	          0.17964689	          0.12864225	          0.16263152	          0.13741385	          0.23700263	          0.32241315	          0.21970632	          0.21358542	          0.21149655	          0.28400367	          0.05000000	          0.05000085	          0.19699824	          0.05000003	          0.05000000	          0.05000003	          0.05966672	          0.05917611	          0.05000003	
          1.68473761	         -2.89310407	          2.73703342	         -6.69889860	          2.11547123	          0.85233400	          0.00268918	         29.79628079	          4.13986313	         -2.35365431	        -17.97774750	         -2.96621999	          6.53250959	        -15.50010394	        -12.95692898	          4.93285210	         -2.08341442	         -4.93936702	         12.79362626	         -0.00971956	          0.52104876	         -0.17338699	         24.98861832	         -1.50982275	         -1.54214268	          2.27796562	        -12.04044678	        -13.51864286	         10.26352481	          8.15626993	        -13.50465299	         18.92290804	         11.75359197	         39.65209745	         86.51662706	         86.51662706	          0.33070594	          0.30379306	          0.40104365	          0.20136015	          0.21399012	          0.22667860	          0.06290016	          0.10027298	          0.20432470	          0.07003689	          0.05000077	          0.07003623	          0.17913134	          0.17086714	          0.15437577	          0.17944944	          0.05000009	          0.05001328	          0.10502394	          0.23429511	          0.18226090	          0.16869057	          0.05000002	          0.05000003	          0.36297238	          0.08440456	          0.15768639	          0.05000001	          0.13970848	          0.16262798	          0.12477967	          0.05000053	          0.05000026	          0.05000012	          0.05000000	          0.05000132	          0.05000016	          0.61967436	          0.39651409	          0.20413220	          0.67469446	          0.65849250	          0.34549378	          0.08016183	          0.08288953	          0.05983641	          0.24987930	          0.05917610	          0.05000001	          0.31113365	          0.11793524	          0.06067957	          0.05000099	          0.05000005	          0.05000004	          0.05000009	          0.06688661	          0.14412933	          0.12415385	          0.05000018	          0.05000023	          0.05000014	          0.26520094	          0.07164610	          0.05000014	          0.05000028	          0.05000017	          0.05000010	          0.26826739	          0.53708716	          0.05000001	          0.05000011	          0.05000006	          0.15179000	          0.10869445	          0.13741317	          0.11610588	          0.20025188	          0.27241825	          0.18563762	          0.18046587	          0.17870093	          0.23996475	          0.05000004	          0.11800977	          0.17883240	          0.05000009	          0.09930284	          0.05000012	          0.08525858	          0.05000000	          0.05000001	
